<mxfile host="Electron" agent="Mozilla/5.0 (Windows NT 10.0; Win64; x64) AppleWebKit/537.36 (KHTML, like Gecko) draw.io/28.1.2 Chrome/138.0.7204.243 Electron/37.4.0 Safari/537.36" version="28.1.2">
  <diagram name="หน้า-1" id="PA9Ah6CnEQnk64lSS1vj">
    <mxGraphModel dx="1042" dy="626" grid="1" gridSize="10" guides="1" tooltips="1" connect="1" arrows="1" fold="1" page="1" pageScale="1" pageWidth="827" pageHeight="1169" math="0" shadow="0">
      <root>
        <mxCell id="0" />
        <mxCell id="1" parent="0" />
        <mxCell id="UhPkT3CU6tXW0ak6_d96-1" value="เริ่มต้น (Start)" style="ellipse;whiteSpace=wrap;html=1;aspect=fixed;" vertex="1" parent="1">
          <mxGeometry x="354" y="40" width="120" height="60" as="geometry" />
        </mxCell>
        <mxCell id="UhPkT3CU6tXW0ak6_d96-2" value="ประกาศตัวแปร ID, workhrs, salaryPerHr, ttSalary" style="rounded=0;whiteSpace=wrap;html=1;" vertex="1" parent="1">
          <mxGeometry x="294" y="140" width="240" height="60" as="geometry" />
        </mxCell>
        <mxCell id="UhPkT3CU6tXW0ak6_d96-3" value="รับค่า รหัสพนักงาน (ID)" style="parallelogram;whiteSpace=wrap;html=1;" vertex="1" parent="1">
          <mxGeometry x="294" y="240" width="240" height="60" as="geometry" />
        </mxCell>
        <mxCell id="UhPkT3CU6tXW0ak6_d96-4" value="รับค่า จำนวนชั่วโมงทำงาน (workhrs)" style="parallelogram;whiteSpace=wrap;html=1;" vertex="1" parent="1">
          <mxGeometry x="294" y="340" width="240" height="60" as="geometry" />
        </mxCell>
        <mxCell id="UhPkT3CU6tXW0ak6_d96-5" value="รับค่า รายได้ต่อชั่วโมง (salaryPerHr)" style="parallelogram;whiteSpace=wrap;html=1;" vertex="1" parent="1">
          <mxGeometry x="294" y="440" width="240" height="60" as="geometry" />
        </mxCell>
        <mxCell id="UhPkT3CU6tXW0ak6_d96-6" value="คำนวณ ttSalary = workhrs × salaryPerHr" style="rounded=0;whiteSpace=wrap;html=1;" vertex="1" parent="1">
          <mxGeometry x="294" y="540" width="240" height="60" as="geometry" />
        </mxCell>
        <mxCell id="UhPkT3CU6tXW0ak6_d96-7" value="แสดงผล Employees ID = ID" style="parallelogram;whiteSpace=wrap;html=1;" vertex="1" parent="1">
          <mxGeometry x="294" y="640" width="240" height="60" as="geometry" />
        </mxCell>
        <mxCell id="UhPkT3CU6tXW0ak6_d96-8" value="แสดงผล Salary = U$ ttSalary" style="parallelogram;whiteSpace=wrap;html=1;" vertex="1" parent="1">
          <mxGeometry x="294" y="740" width="240" height="60" as="geometry" />
        </mxCell>
        <mxCell id="UhPkT3CU6tXW0ak6_d96-9" value="สิ้นสุด (Stop)" style="ellipse;whiteSpace=wrap;html=1;aspect=fixed;" vertex="1" parent="1">
          <mxGeometry x="354" y="850" width="120" height="60" as="geometry" />
        </mxCell>
        <mxCell id="UhPkT3CU6tXW0ak6_d96-10" style="edgeStyle=orthogonalEdgeStyle;rounded=0;orthogonalLoop=1;jettySize=auto;html=1;exitX=0.5;exitY=1.0;entryX=0.5;entryY=0.0;" edge="1" parent="1" source="UhPkT3CU6tXW0ak6_d96-1" target="UhPkT3CU6tXW0ak6_d96-2">
          <mxGeometry relative="1" as="geometry" />
        </mxCell>
        <mxCell id="UhPkT3CU6tXW0ak6_d96-11" style="edgeStyle=orthogonalEdgeStyle;rounded=0;orthogonalLoop=1;jettySize=auto;html=1;" edge="1" parent="1" source="UhPkT3CU6tXW0ak6_d96-2" target="UhPkT3CU6tXW0ak6_d96-3">
          <mxGeometry relative="1" as="geometry" />
        </mxCell>
        <mxCell id="UhPkT3CU6tXW0ak6_d96-12" style="edgeStyle=orthogonalEdgeStyle;rounded=0;orthogonalLoop=1;jettySize=auto;html=1;" edge="1" parent="1" source="UhPkT3CU6tXW0ak6_d96-3" target="UhPkT3CU6tXW0ak6_d96-4">
          <mxGeometry relative="1" as="geometry" />
        </mxCell>
        <mxCell id="UhPkT3CU6tXW0ak6_d96-13" style="edgeStyle=orthogonalEdgeStyle;rounded=0;orthogonalLoop=1;jettySize=auto;html=1;" edge="1" parent="1" source="UhPkT3CU6tXW0ak6_d96-4" target="UhPkT3CU6tXW0ak6_d96-5">
          <mxGeometry relative="1" as="geometry" />
        </mxCell>
        <mxCell id="UhPkT3CU6tXW0ak6_d96-14" style="edgeStyle=orthogonalEdgeStyle;rounded=0;orthogonalLoop=1;jettySize=auto;html=1;" edge="1" parent="1" source="UhPkT3CU6tXW0ak6_d96-5" target="UhPkT3CU6tXW0ak6_d96-6">
          <mxGeometry relative="1" as="geometry" />
        </mxCell>
        <mxCell id="UhPkT3CU6tXW0ak6_d96-15" style="edgeStyle=orthogonalEdgeStyle;rounded=0;orthogonalLoop=1;jettySize=auto;html=1;" edge="1" parent="1" source="UhPkT3CU6tXW0ak6_d96-6" target="UhPkT3CU6tXW0ak6_d96-7">
          <mxGeometry relative="1" as="geometry" />
        </mxCell>
        <mxCell id="UhPkT3CU6tXW0ak6_d96-16" style="edgeStyle=orthogonalEdgeStyle;rounded=0;orthogonalLoop=1;jettySize=auto;html=1;" edge="1" parent="1" source="UhPkT3CU6tXW0ak6_d96-7" target="UhPkT3CU6tXW0ak6_d96-8">
          <mxGeometry relative="1" as="geometry" />
        </mxCell>
        <mxCell id="UhPkT3CU6tXW0ak6_d96-17" style="edgeStyle=orthogonalEdgeStyle;rounded=0;orthogonalLoop=1;jettySize=auto;html=1;" edge="1" parent="1" source="UhPkT3CU6tXW0ak6_d96-8" target="UhPkT3CU6tXW0ak6_d96-9">
          <mxGeometry relative="1" as="geometry" />
        </mxCell>
      </root>
    </mxGraphModel>
  </diagram>
</mxfile>
